<svg xmlns="http://www.w3.org/2000/svg" width="16" height="12.58" viewBox="0 0 16 12.58"><defs><style>.a{opacity:0.12;}.b{fill:#010002;}</style></defs><g class="a" transform="translate(0 -4.179)"><g transform="translate(0 4.179)"><path class="b" d="M1.99,4.922,7.753,10.05a1.354,1.354,0,0,0,.971.316A1.351,1.351,0,0,0,9.7,10.05l5.763-5.127c.462-.408.357-.743-.229-.743H2.22C1.634,4.179,1.529,4.514,1.99,4.922Z" transform="translate(-0.725 -4.179)"/><path class="b" d="M15.15,7.318l-6.3,5.371a1.391,1.391,0,0,1-1.7,0L.85,7.318C.383,6.92,0,7.133,0,7.792V16.6a1.142,1.142,0,0,0,1.067,1.2H14.933A1.142,1.142,0,0,0,16,16.6V7.792C16,7.133,15.617,6.92,15.15,7.318Z" transform="translate(0 -5.222)"/></g></g></svg>