<svg xmlns="http://www.w3.org/2000/svg" width="17.489" height="16.8" viewBox="0 0 17.489 16.8"><defs><style>.a{opacity:0.12;}</style></defs><g class="a"><path d="M8.744,0A8.587,8.587,0,0,0,0,8.4a8.587,8.587,0,0,0,8.744,8.4,8.587,8.587,0,0,0,8.744-8.4A8.587,8.587,0,0,0,8.744,0Zm0,15.012A6.76,6.76,0,0,1,1.86,8.4,6.76,6.76,0,0,1,8.744,1.787,6.76,6.76,0,0,1,15.628,8.4,6.76,6.76,0,0,1,8.744,15.012Z"/><path d="M49.436,22.06h-3.93V17.522a.721.721,0,0,0-1.44,0v5.23a.706.706,0,0,0,.72.692h4.65a.692.692,0,1,0,0-1.383Z" transform="translate(-36.134 -13.92)"/></g></svg>