<svg xmlns="http://www.w3.org/2000/svg" width="26.867" height="39.494" viewBox="0 0 26.867 39.494"><defs><style>.a{fill:#c5c5c5;}</style></defs><path class="a" d="M93.137,9.83a12.394,12.394,0,0,0-.629-1.58,13.325,13.325,0,0,0-25.6,4v1.685c0,.07.024.7.058,1.018.486,3.931,3.549,8.11,5.837,12.041,2.461,4.212,5.016,8.356,7.546,12.5,1.56-2.7,3.115-5.441,4.64-8.074.416-.773.9-1.545,1.314-2.282.277-.491.807-.982,1.049-1.439,2.461-4.563,6.423-9.162,6.423-13.691v-1.86A14.153,14.153,0,0,0,93.137,9.83ZM80.265,18.29a4.77,4.77,0,0,1-4.565-3.3,4.634,4.634,0,0,1-.128-1.229V12.673c0-3.089,2.59-4.493,4.843-4.493a4.942,4.942,0,0,1,4.919,5.056A5.067,5.067,0,0,1,80.265,18.29Z" transform="translate(-66.905)"/></svg>