<svg xmlns="http://www.w3.org/2000/svg" width="318.007" height="23.627" viewBox="0 0 318.007 23.627"><defs><style>.a{fill:#bcbec0;}</style></defs><g transform="translate(0.022 0.1)"><g transform="translate(-0.022 -0.1)"><path d="M239.455,16.6c-1.9,1.7-2.13,1.7-4.725,1.7h-1.666L229.191.1H217.3l5.19,23.511h12.627c6.817,0,6.74-.039,11.233-4.028C255.258,11.642,268.157.1,268.157.1H257.5c-.077,0-16.81,15.416-18.05,16.5" transform="translate(-133.124 -0.023)"/><path d="M15.557.271C6.8.891,3.472,3.99,1.3,9.064-.4,13.014-.4,16.616.955,19.1c1.123,2.092,4.067,3.718,7.669,4.106a75.41,75.41,0,0,0,9.528.387l12.588-.039h7.514c1.937,0,1.9-.039,2.4-1.046.426-.93,1.472-3.68,1.472-3.68H24.195a57.872,57.872,0,0,1-7.243-.349c-2.092-.232-3.447-.93-4.144-2.169-.968-1.743.039-4.88.775-6.507C15.363,5.965,17.61,5,22.529,4.725c2.9-.155,5-.194,7.553-.194H42.477a4.084,4.084,0,0,0,3.912-2.518C46.815,1.085,47.28,0,47.28,0H25.008c-2.982,0-6.7.077-9.451.271" transform="translate(0.022 0.039)"/><path d="M452.608-.061c-2.982,0-6.7.039-9.451.232C434.4.791,431.034,3.89,428.9,8.964c-1.7,3.99-1.7,7.592-.349,10.032,1.123,2.092,4.067,3.718,7.669,4.106a75.41,75.41,0,0,0,9.528.387l12.588-.039h7.514c1.937,0,1.9-.039,2.4-1.046.426-.93,1.472-3.68,1.472-3.68H451.795a57.872,57.872,0,0,1-7.243-.349c-2.092-.232-3.447-.93-4.144-2.169-.968-1.743.039-4.88.775-6.507,1.782-3.835,4.028-4.8,8.947-5.074,2.9-.155,5-.194,7.553-.194h12.395a4.084,4.084,0,0,0,3.912-2.518c.426-.93.891-2.014.891-2.014Z" transform="translate(-261.955 0.1)"/><path d="M137.2,23.572h11.969L157.651.1H145.683Z" transform="translate(-84.05 -0.023)"/><path d="M355.2,23.572h11.969L375.69.1H363.683Z" transform="translate(-217.612 -0.023)"/></g><g transform="translate(264.573 -0.061)"><path class="a" d="M728.226,4.532c-.968-2.092-3.68-3.757-7.088-4.144A67.754,67.754,0,0,0,712.074,0h-4.338c-2.828,0-6.391.039-9.025.232-8.366.62-11.7,3.718-14.021,8.792-1.82,3.99-2.014,7.592-.891,10.032.968,2.092,3.68,3.718,7.088,4.106a67.753,67.753,0,0,0,9.064.387l7.863-.039c1.937-.039,3.873-.116,5.461-.232,8.366-.62,11.7-3.718,14.021-8.792C729.155,10.574,729.349,6.972,728.226,4.532Zm-12.549,8.25c-1.859,3.757-3.989,4.725-8.405,5.035H699.1c-2.014,0-3.215-.155-3.835-1.394-.813-1.743.271-3.951,1.085-5.578,1.859-3.757,3.99-4.725,8.405-5.035h8.173c2.014,0,3.215.155,3.835,1.394C717.613,8.909,716.49,11.116,715.676,12.782Z" transform="translate(-683.103 0)"/></g><path class="a" d="M625.618,0,617.6,7.4h6.391L617.6,23.588h11.388L638.322,0Z" transform="translate(-378.398 -0.061)"/><g transform="translate(264.573 -0.061)"><path class="a" d="M728.226,4.532c-.968-2.092-3.68-3.757-7.088-4.144A67.754,67.754,0,0,0,712.074,0h-4.338c-2.828,0-6.391.039-9.025.232-8.366.62-11.7,3.718-14.021,8.792-1.82,3.99-2.014,7.592-.891,10.032.968,2.092,3.68,3.718,7.088,4.106a67.753,67.753,0,0,0,9.064.387l7.863-.039c1.937-.039,3.873-.116,5.461-.232,8.366-.62,11.7-3.718,14.021-8.792C729.155,10.574,729.349,6.972,728.226,4.532Zm-12.549,8.25c-1.859,3.757-3.989,4.725-8.405,5.035H699.1c-2.014,0-3.215-.155-3.835-1.394-.813-1.743.271-3.951,1.085-5.578,1.859-3.757,3.99-4.725,8.405-5.035h8.173c2.014,0,3.215.155,3.835,1.394C717.613,8.909,716.49,11.116,715.676,12.782Z" transform="translate(-683.103 0)"/></g><path class="a" d="M625.618,0,617.6,7.4h6.391L617.6,23.588h11.388L638.322,0Z" transform="translate(-378.398 -0.061)"/><g transform="translate(233.082 7.685)"><path d="M605.325,28.009a1.448,1.448,0,0,1-.581.5,1.519,1.519,0,0,1-.7.155,2.029,2.029,0,0,1-2.247-2.247,3.651,3.651,0,0,1,.194-1.162,2.976,2.976,0,0,1,.542-.968,2.478,2.478,0,0,1,2.014-.891,3.021,3.021,0,0,1,.852.116,2.909,2.909,0,0,1,.7.31,2.04,2.04,0,0,1,.465.542,1.8,1.8,0,0,1,.155.813H605.6a.808.808,0,0,0-.271-.658,1.378,1.378,0,0,0-.736-.194,1.484,1.484,0,0,0-.736.194,1.564,1.564,0,0,0-.5.5,2.913,2.913,0,0,0-.31.7,2.637,2.637,0,0,0-.116.736,1.964,1.964,0,0,0,.078.5,1.433,1.433,0,0,0,.194.426.618.618,0,0,0,.349.271,1.922,1.922,0,0,0,.5.116,2.286,2.286,0,0,0,.542-.077.8.8,0,0,0,.387-.232.843.843,0,0,0,.271-.349,4.528,4.528,0,0,0,.194-.426h-1.162l.194-.813h2.13l-.581,2.75h-.7v-.62Z" transform="translate(-601.8 -22.083)"/><path d="M641.158,23.439l-.194.93h-2.75l-.232,1.085h2.556l-.194.852h-2.556l-.271,1.239h2.789l-.194.93H636.2l1.046-5.074h3.912Z" transform="translate(-622.876 -22.083)"/><path d="M673.447,23.5a1.606,1.606,0,0,1,.62.077,1.3,1.3,0,0,1,.465.232,1.214,1.214,0,0,1,.31.426,1.474,1.474,0,0,1,.116.62,2.262,2.262,0,0,1-.077.5,1.245,1.245,0,0,1-.62.736,2.184,2.184,0,0,1-.465.155h0a.78.78,0,0,1,.426.349,1.238,1.238,0,0,1,.116.542v1.2c0,.077.039.194.039.271h-1.085c0-.077-.039-.116-.039-.155V28.3a2.214,2.214,0,0,1,.039-.5,2.2,2.2,0,0,0,.039-.5.754.754,0,0,0-.039-.31.386.386,0,0,0-.155-.194.551.551,0,0,0-.232-.077c-.078,0-.194-.039-.31-.039h-1.046l-.426,1.975H670l1.046-5.074h2.4Zm-.775,2.285a1.453,1.453,0,0,0,.426-.039.729.729,0,0,0,.348-.155c.078-.077.194-.155.271-.232a.576.576,0,0,0,.077-.349.925.925,0,0,0-.077-.349.467.467,0,0,0-.194-.194.56.56,0,0,0-.271-.077c-.116,0-.194-.039-.31-.039H671.9l-.31,1.433Z" transform="translate(-643.584 -22.144)"/><path d="M707.306,23.5l.852,5.074h-1.123l-.155-1.123h-1.9l-.62,1.123H703.2l2.982-5.074h1.123Zm-.5,3.1-.232-2.014h0L705.485,26.6Z" transform="translate(-663.925 -22.144)"/><path d="M742.486,24.485a.911.911,0,0,0-.659-.232,1.484,1.484,0,0,0-.736.194,1.564,1.564,0,0,0-.5.5,2.91,2.91,0,0,0-.31.7,2.634,2.634,0,0,0-.116.736,1.964,1.964,0,0,0,.077.5,1.433,1.433,0,0,0,.194.426.618.618,0,0,0,.349.271,1.921,1.921,0,0,0,.5.116,1.391,1.391,0,0,0,.426-.077.7.7,0,0,0,.349-.232,1.044,1.044,0,0,0,.271-.31,1.162,1.162,0,0,0,.155-.387h1.123a3.836,3.836,0,0,1-.387.891,2.476,2.476,0,0,1-.5.581,1.966,1.966,0,0,1-.62.349,2.5,2.5,0,0,1-.775.116h0l-.194.271h0c.039-.039.155-.039.232-.039a.491.491,0,0,1,.232.039.3.3,0,0,1,.194.077.3.3,0,0,1,.155.155.491.491,0,0,1,.039.232.923.923,0,0,1-.078.349,1.023,1.023,0,0,1-.194.232c-.077.077-.155.077-.271.116a.853.853,0,0,1-.31.039h-.31a.491.491,0,0,1-.232-.039c-.078,0-.116-.039-.194-.039s-.116-.039-.194-.077l.155-.349a.56.56,0,0,0,.271.077.962.962,0,0,0,.349.039.291.291,0,0,0,.194-.039.281.281,0,0,0,0-.387.291.291,0,0,0-.194-.039.574.574,0,0,0-.271.039l-.155-.155.349-.5a1.848,1.848,0,0,1-1.394-.658,2.4,2.4,0,0,1-.5-1.549,3.649,3.649,0,0,1,.194-1.162,2.974,2.974,0,0,1,.542-.968,2.8,2.8,0,0,1,.852-.658,2.83,2.83,0,0,1,1.162-.232,2.574,2.574,0,0,1,.813.116,2.156,2.156,0,0,1,.659.349,1.619,1.619,0,0,1,.426.581,1.8,1.8,0,0,1,.155.813H742.68A.76.76,0,0,0,742.486,24.485Z" transform="translate(-685.858 -22.083)"/><path d="M776.206,21.356l.852,5.074h-1.123l-.155-1.123h-1.9l-.62,1.123H772.1l2.982-5.074h1.123Zm-.5,3.1-.232-2.014h0l-1.084,2.014Zm1.239-4.222c-.039.077-.077.194-.116.271-.078.077-.116.155-.232.194a.773.773,0,0,1-.349.077.853.853,0,0,1-.31-.039c-.077-.039-.194-.039-.271-.077a.718.718,0,0,0-.271-.077.491.491,0,0,0-.232-.039.3.3,0,0,0-.194.077.327.327,0,0,0-.077.232h-.426c.039-.116.039-.194.078-.31a.623.623,0,0,1,.155-.271.7.7,0,0,1,.271-.194,1.145,1.145,0,0,1,.387-.077.491.491,0,0,1,.232.039c.077.039.155.039.232.077a.55.55,0,0,0,.232.077.491.491,0,0,0,.232.039.327.327,0,0,0,.232-.077.293.293,0,0,0,.077-.155h.5C777.019,20.039,776.98,20.155,776.942,20.232Z" transform="translate(-706.138 -20)"/><path d="M808.294,25.159a2.623,2.623,0,0,1,.542-.968,2.8,2.8,0,0,1,.852-.658,2.83,2.83,0,0,1,1.162-.232,2.344,2.344,0,0,1,.93.155,1.62,1.62,0,0,1,.7.426,2.2,2.2,0,0,1,.465.7,2.344,2.344,0,0,1,.155.93,4.1,4.1,0,0,1-.194,1.2,3.162,3.162,0,0,1-.542,1.007,3.05,3.05,0,0,1-.852.7,2.32,2.32,0,0,1-1.162.232A2.029,2.029,0,0,1,808.1,26.4,4.157,4.157,0,0,1,808.294,25.159Zm.968,1.666a1.433,1.433,0,0,0,.194.426.619.619,0,0,0,.349.271,1.921,1.921,0,0,0,.5.116,1.338,1.338,0,0,0,.7-.194,1.564,1.564,0,0,0,.5-.5,1.915,1.915,0,0,0,.31-.7,2.632,2.632,0,0,0,.116-.736,1.964,1.964,0,0,0-.077-.5,1.433,1.433,0,0,0-.194-.426.844.844,0,0,0-.349-.271,1.125,1.125,0,0,0-.542-.116,1.484,1.484,0,0,0-.736.194,1.563,1.563,0,0,0-.5.5,2.905,2.905,0,0,0-.31.7,2.63,2.63,0,0,0-.116.736A1.474,1.474,0,0,1,809.262,26.825Z" transform="translate(-728.194 -22.022)"/></g></g></svg>