<svg xmlns="http://www.w3.org/2000/svg" width="17.224" height="17.185" viewBox="0 0 17.224 17.185"><defs><style>.a{opacity:0.12;}</style></defs><g class="a" transform="translate(0 -0.394)"><g transform="translate(0 0.394)"><path d="M16.838,13.986l-2.66-2.66a1.387,1.387,0,0,0-1.956.037l-1.34,1.34-.264-.147a13.336,13.336,0,0,1-3.223-2.331A13.41,13.41,0,0,1,5.058,7c-.05-.09-.1-.176-.144-.258l.9-.9L6.256,5.4A1.386,1.386,0,0,0,6.291,3.44L3.631.78A1.386,1.386,0,0,0,1.676.816l-.75.754.02.02A4.335,4.335,0,0,0,.329,2.68,4.518,4.518,0,0,0,.054,3.786C-.3,6.7,1.033,9.359,4.645,12.97c4.992,4.991,9.014,4.614,9.188,4.6a4.5,4.5,0,0,0,1.108-.278,4.321,4.321,0,0,0,1.086-.615l.016.015.759-.744A1.388,1.388,0,0,0,16.838,13.986Z" transform="translate(0 -0.394)"/></g></g></svg>