<svg xmlns="http://www.w3.org/2000/svg" width="11.936" height="17.326" viewBox="0 0 11.936 17.326"><defs><style>.a{opacity:0.12;}</style></defs><g class="a" transform="translate(-66.905)"><path d="M78.559,4.312a5.4,5.4,0,0,0-.28-.693A5.936,5.936,0,0,0,66.9,5.375v.739c0,.031.011.308.026.447.216,1.725,1.577,3.558,2.593,5.282,1.093,1.848,2.228,3.666,3.352,5.483.693-1.186,1.384-2.387,2.061-3.542.185-.339.4-.678.584-1,.123-.215.359-.431.466-.631,1.093-2,2.853-4.019,2.853-6.006V5.329A6.148,6.148,0,0,0,78.559,4.312ZM72.84,8.024a2.118,2.118,0,0,1-2.028-1.448,2.008,2.008,0,0,1-.057-.539V5.559a2.006,2.006,0,0,1,2.151-1.971,2.181,2.181,0,0,1,2.185,2.218A2.237,2.237,0,0,1,72.84,8.024Z"/></g></svg>